<?xml version="1.0" encoding="UTF-8" standalone="no"?><!DOCTYPE svg PUBLIC "-//W3C//DTD SVG 1.1//EN" "http://www.w3.org/Graphics/SVG/1.1/DTD/svg11.dtd"><svg width="100%" height="100%" viewBox="0 0 192 192" version="1.1" xmlns="http://www.w3.org/2000/svg" xmlns:xlink="http://www.w3.org/1999/xlink" xml:space="preserve" xmlns:serif="http://www.serif.com/" style="fill-rule:evenodd;clip-rule:evenodd;stroke-linejoin:round;stroke-miterlimit:2;"><path d="M7.029,184.971c-4.343,-4.343 -7.029,-10.343 -7.029,-16.971l-0,-88c-0,-44.183 35.817,-80 80,-80l88,0c6.628,0 12.628,2.686 16.971,7.029c4.343,4.344 7.029,10.344 7.029,16.971l0,88c0,44.183 -35.817,80 -80,80l-88,0c-6.628,0 -12.627,-2.686 -16.971,-7.029Z" style="fill:#224a2d;"/><path d="M184.971,7.029c4.343,4.344 7.029,10.344 7.029,16.971l0,88c0,44.183 -35.817,80 -80,80l-88,0c-6.628,0 -12.627,-2.686 -16.971,-7.029l177.942,-177.942Z" style="fill:#162d1d;"/><path d="M102.715,140.603l58.624,-0l-0,10.112l-58.624,-0l-0,-10.112Zm-0,-27.264l58.624,-0l-0,10.112l-58.624,-0l-0,-10.112Z" style="fill:#ebf5f6;fill-rule:nonzero;"/><path d="M56.941,96c-2.133,0 -3.968,-0.683 -5.504,-2.048c-1.45,-1.451 -2.176,-3.371 -2.176,-5.76c0,-2.389 0.726,-4.267 2.176,-5.632c1.536,-1.451 3.371,-2.176 5.504,-2.176c2.134,-0 3.926,0.725 5.376,2.176c1.536,1.365 2.304,3.243 2.304,5.632c0,2.389 -0.768,4.309 -2.304,5.76c-1.45,1.365 -3.242,2.048 -5.376,2.048Zm0,-49.408c-2.133,-0 -3.968,-0.683 -5.504,-2.048c-1.45,-1.451 -2.176,-3.371 -2.176,-5.76c0,-2.389 0.726,-4.267 2.176,-5.632c1.536,-1.451 3.371,-2.176 5.504,-2.176c2.134,-0 3.926,0.725 5.376,2.176c1.536,1.365 2.304,3.243 2.304,5.632c0,2.389 -0.768,4.309 -2.304,5.76c-1.45,1.365 -3.242,2.048 -5.376,2.048Zm-29.312,11.776l58.624,-0l0,10.112l-58.624,-0l0,-10.112Z" style="fill:#ebf5f6;fill-rule:nonzero;"/></svg>