<svg width="32" height="37" viewBox="0 0 32 37" fill="none" xmlns="http://www.w3.org/2000/svg">
<path d="M16 33.6185C18.4 33.6185 20.45 32.7769 22.15 31.0935C23.85 29.4102 24.7 27.3685 24.7 24.9685V16.6185C24.7 14.2185 23.85 12.1769 22.15 10.4935C20.45 8.8102 18.4 7.96853 16 7.96853C13.6 7.96853 11.55 8.8102 9.85 10.4935C8.15 12.1769 7.3 14.2185 7.3 16.6185V24.9685C7.3 27.3685 8.15 29.4102 9.85 31.0935C11.55 32.7769 13.6 33.6185 16 33.6185ZM12 26.6185H20V23.6185H12V26.6185ZM12 17.9685H20V14.9685H12V17.9685ZM16 36.6185C13.8333 36.6185 11.8167 36.1019 9.95 35.0685C8.08333 34.0352 6.7 32.5519 5.8 30.6185H0V27.6185H4.6C4.36667 26.7519 4.25 25.8769 4.25 24.9935V22.3185H0V19.3185H4.25C4.25 18.3519 4.25833 17.3935 4.275 16.4435C4.29167 15.4935 4.43333 14.5519 4.7 13.6185H0V10.6185H6C6.46667 9.6852 7.08333 8.86853 7.85 8.16853C8.61667 7.46853 9.46667 6.8852 10.4 6.41853L6.55 2.61853L8.55 0.61853L13.25 5.31853C14.1833 4.9852 15.125 4.81853 16.075 4.81853C17.025 4.81853 17.9667 4.9852 18.9 5.31853L23.6 0.61853L25.6 2.61853L21.8 6.41853C22.7333 6.8852 23.5583 7.47686 24.275 8.19353C24.9917 8.9102 25.6167 9.71853 26.15 10.6185H32V13.6185H27.3C27.6 14.5519 27.7417 15.4935 27.725 16.4435C27.7083 17.3935 27.7 18.3519 27.7 19.3185H32V22.3185H27.7C27.7 23.2185 27.7083 24.1102 27.725 24.9935C27.7417 25.8769 27.6333 26.7519 27.4 27.6185H32V30.6185H26.25C25.3833 32.5852 24.0083 34.0769 22.125 35.0935C20.2417 36.1102 18.2 36.6185 16 36.6185Z" fill="#EAF5F5"/>
</svg>
