<svg width="100" height="100" viewBox="0 0 100 100" fill="none" xmlns="http://www.w3.org/2000/svg">
<mask id="mask0_114_5" style="mask-type:alpha" maskUnits="userSpaceOnUse" x="0" y="0" width="100" height="100">
<rect width="100" height="100" fill="#EAF5F5"/>
</mask>
<g mask="url(#mask0_114_5)">
<path d="M49.6322 88.9718C38.8117 88.9718 29.6489 85.1727 22.1438 77.5744C14.6388 69.9761 10.914 60.7499 10.9694 49.8957H19.2212C19.2664 58.431 22.2134 65.7022 28.0622 71.7093C33.9109 77.7164 41.0997 80.7199 49.6288 80.7199C58.252 80.7199 65.5799 77.6822 71.6125 71.6068C77.6451 65.5314 80.6615 58.159 80.6615 49.4895C80.6615 41.0284 77.6227 33.8782 71.5452 28.0388C65.4678 22.1994 58.1623 19.2797 49.6288 19.2797C45.2206 19.2797 41.0683 20.2285 37.1719 22.1262C33.2755 24.0238 29.8584 26.5668 26.9205 29.7552H36.6215V36.7707H13.6731V13.9852H20.5708V24.3793C24.2997 20.2217 28.6664 16.9472 33.6709 14.5559C38.6754 12.1646 43.9947 10.969 49.6288 10.969C55.0334 10.969 60.1157 11.9903 64.8757 14.0328C69.6356 16.0754 73.8078 18.8496 77.3921 22.3555C80.9764 25.8614 83.7927 29.9593 85.8409 34.6494C87.8892 39.3395 88.9133 44.3869 88.9133 49.7915C88.9133 55.1961 87.8892 60.2782 85.8409 65.0377C83.7927 69.7973 80.9764 73.9473 77.3921 77.4879C73.8078 81.0285 69.6356 83.8276 64.8757 85.8853C60.1157 87.943 55.0345 88.9718 49.6322 88.9718ZM62.7267 67.3322L46.685 51.4989V28.854H53.5826V48.5415L67.7357 62.3232L62.7267 67.3322Z" fill="#EAF5F5"/>
</g>
</svg>
