<svg width="120" height="50" viewBox="0 0 120 50" fill="none" xmlns="http://www.w3.org/2000/svg">
<path d="M0 22C0 9.84974 9.84974 0 22 0H29C30.6569 0 32 1.34315 32 3V10C32 22.1503 22.1503 32 10 32H3C1.34315 32 0 30.6569 0 29V22Z" fill="#EAF5F5"/>
<path d="M42 40C42 27.8497 51.8497 18 64 18H71C72.6569 18 74 19.3431 74 21V28C74 40.1503 64.1503 50 52 50H45C43.3431 50 42 48.6569 42 47V40Z" fill="#EAF5F5"/>
<path d="M88 22C88 9.84974 97.8497 0 110 0H117C118.657 0 120 1.34315 120 3V10C120 22.1503 110.15 32 98 32H91C89.3431 32 88 30.6569 88 29V22Z" fill="#EAF5F5"/>
</svg>
