<svg width="216" height="104" viewBox="0 0 216 104" fill="none" xmlns="http://www.w3.org/2000/svg">
<g filter="url(#filter0_dd_9_492)">
<rect x="4" width="208" height="96" fill="#162C1C"/>
<path d="M48 45C48 32.8497 57.8497 23 70 23H77C78.6569 23 80 24.3431 80 26V33C80 45.1503 70.1503 55 58 55H51C49.3431 55 48 53.6569 48 52V45Z" fill="#EAF5F5"/>
<path d="M90 63C90 50.8497 99.8497 41 112 41H119C120.657 41 122 42.3431 122 44V51C122 63.1503 112.15 73 100 73H93C91.3431 73 90 71.6569 90 70V63Z" fill="#EAF5F5"/>
<path d="M136 45C136 32.8497 145.85 23 158 23H165C166.657 23 168 24.3431 168 26V33C168 45.1503 158.15 55 146 55H139C137.343 55 136 53.6569 136 52V45Z" fill="#EAF5F5"/>
</g>
<defs>
<filter id="filter0_dd_9_492" x="0" y="0" width="216" height="104" filterUnits="userSpaceOnUse" color-interpolation-filters="sRGB">
<feFlood flood-opacity="0" result="BackgroundImageFix"/>
<feColorMatrix in="SourceAlpha" type="matrix" values="0 0 0 0 0 0 0 0 0 0 0 0 0 0 0 0 0 0 127 0" result="hardAlpha"/>
<feOffset dy="4"/>
<feGaussianBlur stdDeviation="2"/>
<feComposite in2="hardAlpha" operator="out"/>
<feColorMatrix type="matrix" values="0 0 0 0 0 0 0 0 0 0 0 0 0 0 0 0 0 0 0.25 0"/>
<feBlend mode="normal" in2="BackgroundImageFix" result="effect1_dropShadow_9_492"/>
<feColorMatrix in="SourceAlpha" type="matrix" values="0 0 0 0 0 0 0 0 0 0 0 0 0 0 0 0 0 0 127 0" result="hardAlpha"/>
<feOffset dy="4"/>
<feGaussianBlur stdDeviation="2"/>
<feComposite in2="hardAlpha" operator="out"/>
<feColorMatrix type="matrix" values="0 0 0 0 0 0 0 0 0 0 0 0 0 0 0 0 0 0 0.25 0"/>
<feBlend mode="normal" in2="effect1_dropShadow_9_492" result="effect2_dropShadow_9_492"/>
<feBlend mode="normal" in="SourceGraphic" in2="effect2_dropShadow_9_492" result="shape"/>
</filter>
</defs>
</svg>
