<svg width="99" height="99" viewBox="0 0 99 99" fill="none" xmlns="http://www.w3.org/2000/svg">
<mask id="mask0_114_2" style="mask-type:alpha" maskUnits="userSpaceOnUse" x="0" y="0" width="99" height="99">
<rect width="98.3607" height="98.3606" fill="#EAF5F5"/>
</mask>
<g mask="url(#mask0_114_2)">
<path d="M49.2097 84.6313C46.7046 84.6313 44.5626 83.7437 42.7837 81.9684C41.0047 80.1931 40.1152 78.0589 40.1152 75.566C40.1152 73.057 41.0029 70.9092 42.7782 69.1225C44.5536 67.3359 46.6877 66.4426 49.1807 66.4426C51.7051 66.4426 53.8471 67.3335 55.6067 69.1153C57.3664 70.8972 58.2462 73.0392 58.2462 75.5414C58.2462 78.0435 57.3664 80.184 55.6067 81.963C53.8471 83.7419 51.7148 84.6313 49.2097 84.6313ZM49.2097 58.2459C46.7046 58.2459 44.5626 57.3582 42.7837 55.5829C41.0047 53.8075 40.1152 51.6734 40.1152 49.1804C40.1152 46.656 41.0029 44.514 42.7782 42.7544C44.5536 40.9948 46.6877 40.1149 49.1807 40.1149C51.7051 40.1149 53.8471 40.9948 55.6067 42.7544C57.3664 44.514 58.2462 46.6464 58.2462 49.1514C58.2462 51.6565 57.3664 53.7985 55.6067 55.5774C53.8471 57.3564 51.7148 58.2459 49.2097 58.2459ZM49.2097 31.9182C46.7046 31.9182 44.5626 31.0233 42.7837 29.2335C41.0047 27.4436 40.1152 25.2919 40.1152 22.7785C40.1152 20.2651 41.0029 18.1286 42.7782 16.3689C44.5536 14.6093 46.6877 13.7295 49.1807 13.7295C51.7051 13.7295 53.8471 14.6093 55.6067 16.3689C57.3664 18.1286 58.2462 20.2651 58.2462 22.7785C58.2462 25.2919 57.3664 27.4436 55.6067 29.2335C53.8471 31.0233 51.7148 31.9182 49.2097 31.9182Z" fill="#EAF5F5"/>
</g>
</svg>
