<?xml version="1.0" encoding="UTF-8" standalone="no"?>
<!DOCTYPE svg PUBLIC "-//W3C//DTD SVG 1.1//EN" "http://www.w3.org/Graphics/SVG/1.1/DTD/svg11.dtd">
<svg width="100%" height="100%" viewBox="0 0 208 96" version="1.1" xmlns="http://www.w3.org/2000/svg" xmlns:xlink="http://www.w3.org/1999/xlink" xml:space="preserve" xmlns:serif="http://www.serif.com/" style="fill-rule:evenodd;clip-rule:evenodd;stroke-linejoin:round;stroke-miterlimit:2;">
    <path d="M44,54C44,41.85 53.85,32 66,32L73,32C74.657,32 76,33.343 76,35L76,42C76,54.15 66.15,64 54,64L47,64C45.343,64 44,62.657 44,61L44,54Z" style="fill:rgb(234,245,245);fill-rule:nonzero;"/>
    <path d="M88,54C88,41.85 97.85,32 110,32L117,32C118.657,32 120,33.343 120,35L120,42C120,54.15 110.15,64 98,64L91,64C89.343,64 88,62.657 88,61L88,54Z" style="fill:rgb(234,245,245);fill-rule:nonzero;"/>
    <path d="M132,54C132,41.85 141.85,32 154,32L161,32C162.657,32 164,33.343 164,35L164,42C164,54.15 154.15,64 142,64L135,64C133.343,64 132,62.657 132,61L132,54Z" style="fill:rgb(234,245,245);fill-rule:nonzero;"/>
</svg>
