<svg width="120" height="32" viewBox="0 0 120 32" fill="none" xmlns="http://www.w3.org/2000/svg">
<path d="M0 22C0 9.84974 9.84974 0 22 0H29C30.6569 0 32 1.34315 32 3V10C32 22.1503 22.1503 32 10 32H3C1.34315 32 0 30.6569 0 29V22Z" fill="#EAF5F5"/>
<path d="M44 22C44 9.84974 53.8497 0 66 0H73C74.6569 0 76 1.34315 76 3V10C76 22.1503 66.1503 32 54 32H47C45.3431 32 44 30.6569 44 29V22Z" fill="#EAF5F5"/>
<path d="M88 22C88 9.84974 97.8497 0 110 0H117C118.657 0 120 1.34315 120 3V10C120 22.1503 110.15 32 98 32H91C89.3431 32 88 30.6569 88 29V22Z" fill="#EAF5F5"/>
</svg>
